<?xml version="1.0" standalone="no"?>
<!DOCTYPE svg PUBLIC "-//W3C//DTD SVG 20010904//EN"
 "http://www.w3.org/TR/2001/REC-SVG-20010904/DTD/svg10.dtd">
<svg version="1.0" xmlns="http://www.w3.org/2000/svg"
 width="600pt" height="600pt" viewBox="0 0 324 419"
 preserveAspectRatio="xMidYMid meet">

<g transform="translate(0.000000,419.000000) scale(0.100000,-0.100000)"
fill="#808080" stroke="none">
<path d="M1857 4179 c-114 -27 -211 -112 -276 -242 -86 -171 -110 -364 -103
-824 l2 -133 113 0 112 0 0 298 c0 245 4 311 18 380 23 106 55 178 102 231 45
49 92 65 159 52 53 -10 47 -21 70 124 8 50 11 93 7 97 -9 10 -106 28 -140 27
-14 -1 -43 -5 -64 -10z"/>
<path d="M1776 3680 c-7 -29 -26 -230 -26 -276 l0 -30 97 -18 c250 -44 467
-155 657 -336 241 -231 376 -527 393 -860 15 -323 -78 -607 -287 -871 -160
-203 -440 -379 -687 -434 -38 -9 -77 -17 -89 -20 -19 -4 -21 -14 -28 -127 -4
-68 -9 -139 -12 -158 -4 -30 0 -27 28 30 l33 64 65 13 c36 7 102 24 148 38
l82 26 73 -51 73 -51 133 78 133 78 -7 86 -6 86 112 112 112 112 86 -7 86 -6
77 133 c65 113 75 137 65 151 -7 10 -30 42 -51 73 l-39 56 27 87 c15 47 32
114 38 147 l12 61 83 38 83 39 0 156 0 156 -82 37 -83 37 -12 63 c-7 35 -25
102 -39 150 l-27 86 51 72 50 71 -76 132 c-41 73 -77 133 -78 135 -1 2 -41 -1
-90 -5 l-89 -8 -50 56 c-27 31 -76 80 -108 109 l-58 53 3 91 3 90 -131 76
-131 77 -74 -52 -73 -52 -86 28 c-47 15 -113 33 -148 40 -49 9 -66 17 -72 33
-5 12 -19 46 -33 76 -23 50 -26 53 -31 30z"/>
<path d="M1417 3613 l-26 -57 -103 -26 c-57 -15 -124 -33 -150 -40 l-46 -14
-74 51 -73 51 -133 -77 -133 -76 6 -88 7 -88 -111 -111 -110 -110 -88 7 -88 6
-50 -87 c-27 -48 -62 -109 -77 -135 l-27 -47 51 -72 51 -72 -27 -86 c-14 -48
-32 -115 -39 -150 l-12 -63 -83 -37 -82 -37 0 -156 0 -156 85 -39 c65 -30 85
-44 85 -59 0 -21 43 -189 62 -242 12 -34 14 -31 -75 -154 l-18 -25 77 -135
c43 -74 78 -134 78 -135 1 -1 40 3 87 8 l87 8 112 -112 112 -112 -9 -86 -8
-87 134 -77 135 -77 73 51 73 51 83 -26 c45 -14 111 -31 147 -38 l65 -13 34
-72 c19 -40 38 -72 42 -72 8 0 29 184 29 261 0 39 -4 61 -12 63 -7 2 -61 12
-119 23 -58 11 -152 39 -209 62 -408 164 -694 506 -787 941 -25 119 -25 382 1
500 78 360 290 657 605 849 103 63 258 124 374 148 l87 18 0 65 c0 36 5 103
10 149 6 46 9 85 7 87 -2 3 -16 -21 -30 -53z"/>
<path d="M950 2833 l1 -98 309 -315 c170 -173 309 -319 310 -323 0 -4 -139
-149 -310 -322 l-310 -314 0 -101 0 -100 645 0 644 0 5 33 c8 46 46 393 46
417 0 18 -7 20 -60 20 -52 0 -60 -2 -60 -19 0 -38 -44 -133 -81 -175 -69 -79
-74 -79 -491 -84 -203 -2 -368 -1 -368 3 0 3 145 149 322 324 l323 318 -325
321 -325 321 346 1 c390 0 420 -4 490 -67 41 -37 76 -96 98 -165 l13 -38 59 0
c40 0 59 4 59 13 0 20 -41 400 -46 425 l-4 22 -645 0 -645 0 0 -97z"/>
<path d="M1490 2622 l0 -77 120 -120 121 -120 -6 90 c-2 50 -8 138 -11 198
l-6 107 -109 0 -109 0 0 -78z"/>
<path d="M1510 2094 c0 -8 5 -12 10 -9 6 4 8 11 5 16 -9 14 -15 11 -15 -7z"/>
<path d="M1627 1787 c-119 -112 -114 -101 -101 -226 l7 -61 108 0 109 0 -1 98
c-1 53 -4 141 -8 194 l-6 97 -108 -102z"/>
<path d="M1538 988 c4 -216 -8 -406 -30 -498 -6 -25 -26 -78 -45 -118 -48
-101 -86 -127 -183 -120 l-70 5 -6 -36 c-4 -20 -12 -67 -20 -106 -10 -53 -10
-72 -1 -77 55 -36 215 -35 288 0 92 45 187 175 232 317 45 143 70 435 60 710
l-6 145 -111 0 -111 0 3 -222z"/>
</g>
</svg>
